<svg width="367" height="52" viewBox="0 0 367 52" fill="none" xmlns="http://www.w3.org/2000/svg">
<line x1="6.90465" y1="17.9307" x2="23.2855" y2="6.4607" stroke="white" stroke-width="9" stroke-linecap="round"/>
<line x1="51.6017" y1="18.2721" x2="35.272" y2="29.8149" stroke="white" stroke-width="9" stroke-linecap="round"/>
<line x1="6.26728" y1="17.8949" x2="22.6482" y2="29.3649" stroke="white" stroke-width="9" stroke-linecap="round"/>
<line x1="52.4859" y1="17.7374" x2="36.105" y2="6.26739" stroke="white" stroke-width="9" stroke-linecap="round"/>
<path d="M75.3313 12.5562H80.45V19.4375C79.7313 19.675 78.9875 19.8594 78.2188 19.9906C77.45 20.1219 76.5875 20.1875 75.6313 20.1875C74.2375 20.1875 73.0563 19.9125 72.0875 19.3625C71.125 18.8062 70.3938 18.0031 69.8938 16.9531C69.3938 15.8969 69.1438 14.625 69.1438 13.1375C69.1438 11.7062 69.4219 10.4656 69.9781 9.41562C70.5344 8.35937 71.3438 7.54375 72.4063 6.96875C73.4688 6.3875 74.7563 6.09687 76.2688 6.09687C77.0125 6.09687 77.7313 6.17187 78.425 6.32187C79.125 6.46562 79.7656 6.66562 80.3469 6.92187L79.5594 8.77812C79.0969 8.55937 78.5781 8.375 78.0031 8.225C77.4281 8.075 76.8313 8 76.2125 8C75.2313 8 74.3844 8.2125 73.6719 8.6375C72.9656 9.0625 72.4219 9.6625 72.0406 10.4375C71.6594 11.2062 71.4688 12.1156 71.4688 13.1656C71.4688 14.1844 71.6219 15.0781 71.9281 15.8469C72.2344 16.6156 72.7125 17.2156 73.3625 17.6469C74.0188 18.0719 74.8656 18.2844 75.9031 18.2844C76.4219 18.2844 76.8625 18.2562 77.225 18.2C77.5875 18.1437 77.9219 18.0812 78.2281 18.0125V14.4781H75.3313V12.5562ZM92.6938 14.7875C92.6938 15.65 92.5813 16.4156 92.3563 17.0844C92.1313 17.7531 91.8031 18.3187 91.3719 18.7812C90.9406 19.2375 90.4219 19.5875 89.8156 19.8312C89.2094 20.0688 88.525 20.1875 87.7625 20.1875C87.05 20.1875 86.3969 20.0688 85.8031 19.8312C85.2094 19.5875 84.6938 19.2375 84.2563 18.7812C83.825 18.3187 83.4906 17.7531 83.2531 17.0844C83.0156 16.4156 82.8969 15.65 82.8969 14.7875C82.8969 13.6437 83.0938 12.675 83.4875 11.8812C83.8875 11.0812 84.4563 10.4719 85.1938 10.0531C85.9313 9.63437 86.8094 9.425 87.8281 9.425C88.7844 9.425 89.6281 9.63437 90.3594 10.0531C91.0906 10.4719 91.6625 11.0812 92.075 11.8812C92.4875 12.6812 92.6938 13.65 92.6938 14.7875ZM85.1656 14.7875C85.1656 15.5437 85.2563 16.1906 85.4375 16.7281C85.625 17.2656 85.9125 17.6781 86.3 17.9656C86.6875 18.2469 87.1875 18.3875 87.8 18.3875C88.4125 18.3875 88.9125 18.2469 89.3 17.9656C89.6875 17.6781 89.9719 17.2656 90.1531 16.7281C90.3344 16.1906 90.425 15.5437 90.425 14.7875C90.425 14.0312 90.3344 13.3906 90.1531 12.8656C89.9719 12.3344 89.6875 11.9312 89.3 11.6562C88.9125 11.375 88.4094 11.2344 87.7906 11.2344C86.8781 11.2344 86.2125 11.5406 85.7938 12.1531C85.375 12.7656 85.1656 13.6437 85.1656 14.7875ZM104.413 14.7875C104.413 15.65 104.3 16.4156 104.075 17.0844C103.85 17.7531 103.522 18.3187 103.091 18.7812C102.659 19.2375 102.141 19.5875 101.534 19.8312C100.928 20.0688 100.244 20.1875 99.4813 20.1875C98.7688 20.1875 98.1156 20.0688 97.5219 19.8312C96.9281 19.5875 96.4125 19.2375 95.975 18.7812C95.5438 18.3187 95.2094 17.7531 94.9719 17.0844C94.7344 16.4156 94.6156 15.65 94.6156 14.7875C94.6156 13.6437 94.8125 12.675 95.2063 11.8812C95.6063 11.0812 96.175 10.4719 96.9125 10.0531C97.65 9.63437 98.5281 9.425 99.5469 9.425C100.503 9.425 101.347 9.63437 102.078 10.0531C102.809 10.4719 103.381 11.0812 103.794 11.8812C104.206 12.6812 104.413 13.65 104.413 14.7875ZM96.8844 14.7875C96.8844 15.5437 96.975 16.1906 97.1563 16.7281C97.3438 17.2656 97.6313 17.6781 98.0188 17.9656C98.4063 18.2469 98.9063 18.3875 99.5188 18.3875C100.131 18.3875 100.631 18.2469 101.019 17.9656C101.406 17.6781 101.691 17.2656 101.872 16.7281C102.053 16.1906 102.144 15.5437 102.144 14.7875C102.144 14.0312 102.053 13.3906 101.872 12.8656C101.691 12.3344 101.406 11.9312 101.019 11.6562C100.631 11.375 100.128 11.2344 99.5094 11.2344C98.5969 11.2344 97.9313 11.5406 97.5125 12.1531C97.0938 12.7656 96.8844 13.6437 96.8844 14.7875ZM109.906 24.6125C108.5 24.6125 107.422 24.3594 106.672 23.8531C105.922 23.3469 105.547 22.6375 105.547 21.725C105.547 21.0875 105.747 20.5469 106.147 20.1031C106.547 19.6656 107.119 19.3625 107.863 19.1937C107.581 19.0687 107.338 18.875 107.131 18.6125C106.931 18.3437 106.831 18.0469 106.831 17.7219C106.831 17.3344 106.941 17.0031 107.159 16.7281C107.378 16.4531 107.706 16.1875 108.144 15.9312C107.6 15.7 107.163 15.325 106.831 14.8062C106.506 14.2812 106.344 13.6656 106.344 12.9594C106.344 12.2094 106.503 11.5719 106.822 11.0469C107.141 10.5156 107.606 10.1125 108.219 9.8375C108.831 9.55625 109.572 9.41562 110.441 9.41562C110.628 9.41562 110.831 9.42812 111.05 9.45312C111.275 9.47187 111.481 9.49687 111.669 9.52812C111.863 9.55312 112.009 9.58125 112.109 9.6125H115.7V10.8406L113.938 11.1687C114.106 11.4062 114.241 11.6781 114.341 11.9844C114.441 12.2844 114.491 12.6125 114.491 12.9687C114.491 14.0437 114.119 14.8906 113.375 15.5094C112.638 16.1219 111.619 16.4281 110.319 16.4281C110.006 16.4156 109.703 16.3906 109.409 16.3531C109.184 16.4906 109.013 16.6437 108.894 16.8125C108.775 16.975 108.716 17.1594 108.716 17.3656C108.716 17.5344 108.775 17.6719 108.894 17.7781C109.013 17.8781 109.188 17.9531 109.419 18.0031C109.656 18.0531 109.944 18.0781 110.281 18.0781H112.072C113.209 18.0781 114.078 18.3187 114.678 18.8C115.278 19.2812 115.578 19.9875 115.578 20.9188C115.578 22.1 115.091 23.0094 114.116 23.6469C113.141 24.2906 111.738 24.6125 109.906 24.6125ZM109.991 23.0656C110.759 23.0656 111.406 22.9906 111.931 22.8406C112.456 22.6906 112.853 22.475 113.122 22.1938C113.391 21.9188 113.525 21.5906 113.525 21.2094C113.525 20.8719 113.441 20.6125 113.272 20.4313C113.103 20.25 112.85 20.125 112.513 20.0563C112.175 19.9875 111.756 19.9531 111.256 19.9531H109.625C109.219 19.9531 108.859 20.0156 108.547 20.1406C108.234 20.2719 107.991 20.4594 107.816 20.7031C107.647 20.9469 107.563 21.2406 107.563 21.5844C107.563 22.0594 107.772 22.425 108.191 22.6813C108.616 22.9375 109.216 23.0656 109.991 23.0656ZM110.422 14.9844C111.066 14.9844 111.544 14.8094 111.856 14.4594C112.169 14.1031 112.325 13.6031 112.325 12.9594C112.325 12.2594 112.163 11.7344 111.838 11.3844C111.519 11.0344 111.044 10.8594 110.413 10.8594C109.794 10.8594 109.322 11.0375 108.997 11.3937C108.678 11.75 108.519 12.2781 108.519 12.9781C108.519 13.6094 108.678 14.1031 108.997 14.4594C109.322 14.8094 109.797 14.9844 110.422 14.9844ZM119.806 20H117.594V5.4125H119.806V20ZM127.091 9.425C128.016 9.425 128.809 9.61562 129.472 9.99687C130.134 10.3781 130.644 10.9187 131 11.6187C131.356 12.3187 131.534 13.1562 131.534 14.1312V15.3125H124.606C124.631 16.3187 124.9 17.0937 125.413 17.6375C125.931 18.1812 126.656 18.4531 127.588 18.4531C128.25 18.4531 128.844 18.3906 129.369 18.2656C129.9 18.1344 130.447 17.9437 131.009 17.6937V19.4844C130.491 19.7281 129.963 19.9062 129.425 20.0188C128.888 20.1313 128.244 20.1875 127.494 20.1875C126.475 20.1875 125.578 19.9906 124.803 19.5969C124.034 19.1969 123.431 18.6031 122.994 17.8156C122.563 17.0281 122.347 16.05 122.347 14.8812C122.347 13.7187 122.544 12.7312 122.938 11.9187C123.331 11.1062 123.884 10.4875 124.597 10.0625C125.309 9.6375 126.141 9.425 127.091 9.425ZM127.091 11.0844C126.397 11.0844 125.834 11.3094 125.403 11.7594C124.978 12.2094 124.728 12.8687 124.653 13.7375H129.378C129.372 13.2187 129.284 12.7594 129.116 12.3594C128.953 11.9594 128.703 11.6469 128.366 11.4219C128.034 11.1969 127.609 11.0844 127.091 11.0844ZM150.359 13.0156C150.359 14.5594 150.072 15.85 149.497 16.8875C148.922 17.9187 148.088 18.6969 146.994 19.2219C145.9 19.7406 144.581 20 143.038 20H139.231V6.29375H143.45C144.869 6.29375 146.094 6.55 147.125 7.0625C148.156 7.56875 148.953 8.32187 149.516 9.32187C150.078 10.3156 150.359 11.5469 150.359 13.0156ZM148.016 13.0812C148.016 11.9562 147.838 11.0312 147.481 10.3062C147.131 9.58125 146.613 9.04375 145.925 8.69375C145.244 8.3375 144.403 8.15937 143.403 8.15937H141.481V18.1156H143.075C144.731 18.1156 145.969 17.6937 146.788 16.85C147.606 16.0062 148.016 14.75 148.016 13.0812ZM157.222 9.425C158.147 9.425 158.941 9.61562 159.603 9.99687C160.266 10.3781 160.775 10.9187 161.131 11.6187C161.488 12.3187 161.666 13.1562 161.666 14.1312V15.3125H154.738C154.763 16.3187 155.031 17.0937 155.544 17.6375C156.063 18.1812 156.788 18.4531 157.719 18.4531C158.381 18.4531 158.975 18.3906 159.5 18.2656C160.031 18.1344 160.578 17.9437 161.141 17.6937V19.4844C160.622 19.7281 160.094 19.9062 159.556 20.0188C159.019 20.1313 158.375 20.1875 157.625 20.1875C156.606 20.1875 155.709 19.9906 154.934 19.5969C154.166 19.1969 153.563 18.6031 153.125 17.8156C152.694 17.0281 152.478 16.05 152.478 14.8812C152.478 13.7187 152.675 12.7312 153.069 11.9187C153.463 11.1062 154.016 10.4875 154.728 10.0625C155.441 9.6375 156.272 9.425 157.222 9.425ZM157.222 11.0844C156.528 11.0844 155.966 11.3094 155.534 11.7594C155.109 12.2094 154.859 12.8687 154.784 13.7375H159.509C159.503 13.2187 159.416 12.7594 159.247 12.3594C159.084 11.9594 158.834 11.6469 158.497 11.4219C158.166 11.1969 157.741 11.0844 157.222 11.0844ZM166.522 20L162.575 9.62187H164.909L167.047 15.7156C167.184 16.1031 167.309 16.5219 167.422 16.9719C167.534 17.4219 167.613 17.8 167.656 18.1062H167.731C167.775 17.7875 167.859 17.4062 167.984 16.9625C168.109 16.5125 168.238 16.0969 168.369 15.7156L170.506 9.62187H172.831L168.884 20H166.522ZM178.541 9.425C179.466 9.425 180.259 9.61562 180.922 9.99687C181.584 10.3781 182.094 10.9187 182.45 11.6187C182.806 12.3187 182.984 13.1562 182.984 14.1312V15.3125H176.056C176.081 16.3187 176.35 17.0937 176.863 17.6375C177.381 18.1812 178.106 18.4531 179.038 18.4531C179.7 18.4531 180.294 18.3906 180.819 18.2656C181.35 18.1344 181.897 17.9437 182.459 17.6937V19.4844C181.941 19.7281 181.413 19.9062 180.875 20.0188C180.338 20.1313 179.694 20.1875 178.944 20.1875C177.925 20.1875 177.028 19.9906 176.253 19.5969C175.484 19.1969 174.881 18.6031 174.444 17.8156C174.013 17.0281 173.797 16.05 173.797 14.8812C173.797 13.7187 173.994 12.7312 174.388 11.9187C174.781 11.1062 175.334 10.4875 176.047 10.0625C176.759 9.6375 177.591 9.425 178.541 9.425ZM178.541 11.0844C177.847 11.0844 177.284 11.3094 176.853 11.7594C176.428 12.2094 176.178 12.8687 176.103 13.7375H180.828C180.822 13.2187 180.734 12.7594 180.566 12.3594C180.403 11.9594 180.153 11.6469 179.816 11.4219C179.484 11.1969 179.059 11.0844 178.541 11.0844ZM187.681 20H185.469V5.4125H187.681V20ZM200.019 14.7875C200.019 15.65 199.906 16.4156 199.681 17.0844C199.456 17.7531 199.128 18.3187 198.697 18.7812C198.266 19.2375 197.747 19.5875 197.141 19.8312C196.534 20.0688 195.85 20.1875 195.088 20.1875C194.375 20.1875 193.722 20.0688 193.128 19.8312C192.534 19.5875 192.019 19.2375 191.581 18.7812C191.15 18.3187 190.816 17.7531 190.578 17.0844C190.341 16.4156 190.222 15.65 190.222 14.7875C190.222 13.6437 190.419 12.675 190.813 11.8812C191.213 11.0812 191.781 10.4719 192.519 10.0531C193.256 9.63437 194.134 9.425 195.153 9.425C196.109 9.425 196.953 9.63437 197.684 10.0531C198.416 10.4719 198.988 11.0812 199.4 11.8812C199.813 12.6812 200.019 13.65 200.019 14.7875ZM192.491 14.7875C192.491 15.5437 192.581 16.1906 192.763 16.7281C192.95 17.2656 193.238 17.6781 193.625 17.9656C194.013 18.2469 194.513 18.3875 195.125 18.3875C195.738 18.3875 196.238 18.2469 196.625 17.9656C197.013 17.6781 197.297 17.2656 197.478 16.7281C197.659 16.1906 197.75 15.5437 197.75 14.7875C197.75 14.0312 197.659 13.3906 197.478 12.8656C197.297 12.3344 197.013 11.9312 196.625 11.6562C196.238 11.375 195.734 11.2344 195.116 11.2344C194.203 11.2344 193.538 11.5406 193.119 12.1531C192.7 12.7656 192.491 13.6437 192.491 14.7875ZM207.875 9.425C209.106 9.425 210.094 9.875 210.838 10.775C211.588 11.675 211.963 13.0125 211.963 14.7875C211.963 15.9625 211.788 16.9531 211.438 17.7594C211.094 18.5594 210.609 19.1656 209.984 19.5781C209.366 19.9844 208.644 20.1875 207.819 20.1875C207.294 20.1875 206.838 20.1188 206.45 19.9812C206.063 19.8437 205.731 19.6656 205.456 19.4469C205.181 19.2219 204.95 18.9781 204.763 18.7156H204.631C204.663 18.9656 204.691 19.2437 204.716 19.55C204.747 19.85 204.763 20.125 204.763 20.375V24.6031H202.55V9.62187H204.35L204.659 11.0562H204.763C204.956 10.7625 205.191 10.4906 205.466 10.2406C205.747 9.99062 206.084 9.79375 206.478 9.65C206.878 9.5 207.344 9.425 207.875 9.425ZM207.284 11.225C206.678 11.225 206.191 11.3469 205.822 11.5906C205.459 11.8281 205.194 12.1875 205.025 12.6687C204.863 13.15 204.775 13.7531 204.763 14.4781V14.7875C204.763 15.5562 204.841 16.2094 204.997 16.7469C205.159 17.2781 205.425 17.6844 205.794 17.9656C206.169 18.2406 206.675 18.3781 207.313 18.3781C207.85 18.3781 208.294 18.2312 208.644 17.9375C209 17.6437 209.266 17.225 209.441 16.6812C209.616 16.1375 209.703 15.4969 209.703 14.7594C209.703 13.6406 209.503 12.7719 209.103 12.1531C208.709 11.5344 208.103 11.225 207.284 11.225ZM218.647 9.425C219.572 9.425 220.366 9.61562 221.028 9.99687C221.691 10.3781 222.2 10.9187 222.556 11.6187C222.913 12.3187 223.091 13.1562 223.091 14.1312V15.3125H216.163C216.188 16.3187 216.456 17.0937 216.969 17.6375C217.488 18.1812 218.213 18.4531 219.144 18.4531C219.806 18.4531 220.4 18.3906 220.925 18.2656C221.456 18.1344 222.003 17.9437 222.566 17.6937V19.4844C222.047 19.7281 221.519 19.9062 220.981 20.0188C220.444 20.1313 219.8 20.1875 219.05 20.1875C218.031 20.1875 217.134 19.9906 216.359 19.5969C215.591 19.1969 214.988 18.6031 214.55 17.8156C214.119 17.0281 213.903 16.05 213.903 14.8812C213.903 13.7187 214.1 12.7312 214.494 11.9187C214.888 11.1062 215.441 10.4875 216.153 10.0625C216.866 9.6375 217.697 9.425 218.647 9.425ZM218.647 11.0844C217.953 11.0844 217.391 11.3094 216.959 11.7594C216.534 12.2094 216.284 12.8687 216.209 13.7375H220.934C220.928 13.2187 220.841 12.7594 220.672 12.3594C220.509 11.9594 220.259 11.6469 219.922 11.4219C219.591 11.1969 219.166 11.0844 218.647 11.0844ZM230.834 9.425C231.009 9.425 231.2 9.43437 231.406 9.45312C231.613 9.47187 231.791 9.49687 231.941 9.52812L231.734 11.5906C231.603 11.5531 231.441 11.525 231.247 11.5062C231.059 11.4875 230.891 11.4781 230.741 11.4781C230.347 11.4781 229.972 11.5437 229.616 11.675C229.259 11.8 228.944 11.9937 228.669 12.2562C228.394 12.5125 228.178 12.8344 228.022 13.2219C227.866 13.6094 227.788 14.0594 227.788 14.5719V20H225.575V9.62187H227.3L227.6 11.45H227.703C227.909 11.0812 228.166 10.7437 228.472 10.4375C228.778 10.1312 229.128 9.8875 229.522 9.70625C229.922 9.51875 230.359 9.425 230.834 9.425ZM246.988 16.2687C246.988 17.0812 246.788 17.7812 246.388 18.3687C245.994 18.9562 245.425 19.4062 244.681 19.7187C243.944 20.0313 243.063 20.1875 242.038 20.1875C241.538 20.1875 241.059 20.1594 240.603 20.1031C240.147 20.0469 239.716 19.9656 239.309 19.8594C238.909 19.7469 238.544 19.6125 238.213 19.4562V17.3375C238.769 17.5812 239.391 17.8031 240.078 18.0031C240.766 18.1969 241.466 18.2937 242.178 18.2937C242.759 18.2937 243.241 18.2187 243.622 18.0687C244.009 17.9125 244.297 17.6937 244.484 17.4125C244.672 17.125 244.766 16.7906 244.766 16.4094C244.766 16.0031 244.656 15.6594 244.438 15.3781C244.219 15.0969 243.888 14.8406 243.444 14.6094C243.006 14.3719 242.456 14.1187 241.794 13.85C241.344 13.6687 240.913 13.4625 240.5 13.2312C240.094 13 239.731 12.7281 239.413 12.4156C239.094 12.1031 238.841 11.7344 238.653 11.3094C238.472 10.8781 238.381 10.3719 238.381 9.79062C238.381 9.01562 238.566 8.35312 238.934 7.80312C239.309 7.25312 239.834 6.83125 240.509 6.5375C241.191 6.24375 241.984 6.09687 242.891 6.09687C243.609 6.09687 244.284 6.17187 244.916 6.32187C245.553 6.47187 246.178 6.68437 246.791 6.95937L246.078 8.76875C245.516 8.5375 244.969 8.35312 244.438 8.21562C243.913 8.07812 243.375 8.00937 242.825 8.00937C242.35 8.00937 241.947 8.08125 241.616 8.225C241.284 8.36875 241.031 8.57187 240.856 8.83437C240.688 9.09062 240.603 9.39687 240.603 9.75312C240.603 10.1531 240.7 10.4906 240.894 10.7656C241.094 11.0344 241.4 11.2812 241.813 11.5062C242.231 11.7312 242.769 11.9812 243.425 12.2562C244.181 12.5687 244.822 12.8969 245.347 13.2406C245.878 13.5844 246.284 13.9969 246.566 14.4781C246.847 14.9531 246.988 15.55 246.988 16.2687ZM253.269 18.4062C253.556 18.4062 253.841 18.3812 254.122 18.3312C254.403 18.275 254.659 18.2094 254.891 18.1344V19.8031C254.647 19.9094 254.331 20 253.944 20.075C253.556 20.15 253.153 20.1875 252.734 20.1875C252.147 20.1875 251.619 20.0906 251.15 19.8969C250.681 19.6969 250.309 19.3562 250.034 18.875C249.759 18.3937 249.622 17.7281 249.622 16.8781V11.3H248.206V10.3156L249.725 9.5375L250.447 7.31562H251.834V9.62187H254.806V11.3H251.834V16.85C251.834 17.375 251.966 17.7656 252.228 18.0219C252.491 18.2781 252.838 18.4062 253.269 18.4062ZM266.047 9.62187V20H264.313L264.013 18.6031H263.891C263.672 18.9594 263.394 19.2562 263.056 19.4937C262.719 19.725 262.344 19.8969 261.931 20.0094C261.519 20.1281 261.084 20.1875 260.628 20.1875C259.847 20.1875 259.178 20.0563 258.622 19.7937C258.072 19.525 257.65 19.1125 257.356 18.5562C257.063 18 256.916 17.2812 256.916 16.4V9.62187H259.128V15.9875C259.128 16.7937 259.291 17.3969 259.616 17.7969C259.947 18.1969 260.459 18.3969 261.153 18.3969C261.822 18.3969 262.353 18.2594 262.747 17.9844C263.141 17.7094 263.419 17.3031 263.581 16.7656C263.75 16.2281 263.834 15.5687 263.834 14.7875V9.62187H266.047ZM272.694 20.1875C271.456 20.1875 270.463 19.7375 269.713 18.8375C268.969 17.9312 268.597 16.5969 268.597 14.8344C268.597 13.0531 268.975 11.7062 269.731 10.7937C270.494 9.88125 271.497 9.425 272.741 9.425C273.266 9.425 273.725 9.49687 274.119 9.64062C274.513 9.77812 274.85 9.96562 275.131 10.2031C275.419 10.4406 275.663 10.7062 275.863 11H275.966C275.934 10.8062 275.897 10.5281 275.853 10.1656C275.816 9.79687 275.797 9.45625 275.797 9.14375V5.4125H278.009V20H276.284L275.891 18.5844H275.797C275.609 18.8844 275.372 19.1562 275.084 19.4C274.803 19.6375 274.466 19.8281 274.072 19.9719C273.684 20.1156 273.225 20.1875 272.694 20.1875ZM273.313 18.3969C274.256 18.3969 274.922 18.125 275.309 17.5812C275.697 17.0375 275.897 16.2219 275.909 15.1344V14.8437C275.909 13.6812 275.722 12.7906 275.347 12.1719C274.972 11.5469 274.288 11.2344 273.294 11.2344C272.5 11.2344 271.894 11.5562 271.475 12.2C271.063 12.8375 270.856 13.7281 270.856 14.8719C270.856 16.0156 271.063 16.8906 271.475 17.4969C271.894 18.0969 272.506 18.3969 273.313 18.3969ZM285.303 9.425C286.228 9.425 287.022 9.61562 287.684 9.99687C288.347 10.3781 288.856 10.9187 289.213 11.6187C289.569 12.3187 289.747 13.1562 289.747 14.1312V15.3125H282.819C282.844 16.3187 283.113 17.0937 283.625 17.6375C284.144 18.1812 284.869 18.4531 285.8 18.4531C286.463 18.4531 287.056 18.3906 287.581 18.2656C288.113 18.1344 288.659 17.9437 289.222 17.6937V19.4844C288.703 19.7281 288.175 19.9062 287.638 20.0188C287.1 20.1313 286.456 20.1875 285.706 20.1875C284.688 20.1875 283.791 19.9906 283.016 19.5969C282.247 19.1969 281.644 18.6031 281.206 17.8156C280.775 17.0281 280.559 16.05 280.559 14.8812C280.559 13.7187 280.756 12.7312 281.15 11.9187C281.544 11.1062 282.097 10.4875 282.809 10.0625C283.522 9.6375 284.353 9.425 285.303 9.425ZM285.303 11.0844C284.609 11.0844 284.047 11.3094 283.616 11.7594C283.191 12.2094 282.941 12.8687 282.866 13.7375H287.591C287.584 13.2187 287.497 12.7594 287.328 12.3594C287.166 11.9594 286.916 11.6469 286.578 11.4219C286.247 11.1969 285.822 11.0844 285.303 11.0844ZM297.641 9.425C298.809 9.425 299.719 9.72812 300.369 10.3344C301.025 10.9344 301.353 11.9 301.353 13.2312V20H299.15V13.6437C299.15 12.8375 298.984 12.2344 298.653 11.8344C298.322 11.4281 297.809 11.225 297.116 11.225C296.109 11.225 295.409 11.5344 295.016 12.1531C294.628 12.7719 294.434 13.6687 294.434 14.8437V20H292.231V9.62187H293.947L294.256 11.0281H294.378C294.603 10.6656 294.881 10.3687 295.213 10.1375C295.55 9.9 295.925 9.72187 296.338 9.60312C296.756 9.48437 297.191 9.425 297.641 9.425ZM308.3 18.4062C308.588 18.4062 308.872 18.3812 309.153 18.3312C309.434 18.275 309.691 18.2094 309.922 18.1344V19.8031C309.678 19.9094 309.363 20 308.975 20.075C308.588 20.15 308.184 20.1875 307.766 20.1875C307.178 20.1875 306.65 20.0906 306.181 19.8969C305.713 19.6969 305.341 19.3562 305.066 18.875C304.791 18.3937 304.653 17.7281 304.653 16.8781V11.3H303.238V10.3156L304.756 9.5375L305.478 7.31562H306.866V9.62187H309.838V11.3H306.866V16.85C306.866 17.375 306.997 17.7656 307.259 18.0219C307.522 18.2781 307.869 18.4062 308.3 18.4062ZM323.084 8.00937C322.428 8.00937 321.841 8.12812 321.322 8.36562C320.809 8.60312 320.375 8.94687 320.019 9.39687C319.663 9.84062 319.391 10.3812 319.203 11.0187C319.016 11.65 318.922 12.3625 318.922 13.1562C318.922 14.2187 319.072 15.1344 319.372 15.9031C319.672 16.6656 320.128 17.2531 320.741 17.6656C321.353 18.0719 322.128 18.275 323.066 18.275C323.647 18.275 324.213 18.2187 324.763 18.1062C325.313 17.9937 325.881 17.8406 326.469 17.6469V19.5594C325.913 19.7781 325.35 19.9375 324.781 20.0375C324.213 20.1375 323.556 20.1875 322.813 20.1875C321.413 20.1875 320.25 19.8969 319.325 19.3156C318.406 18.7344 317.719 17.9156 317.263 16.8594C316.813 15.8031 316.588 14.5656 316.588 13.1469C316.588 12.1094 316.731 11.1594 317.019 10.2969C317.306 9.43437 317.725 8.69062 318.275 8.06562C318.825 7.43437 319.503 6.95 320.309 6.6125C321.122 6.26875 322.05 6.09687 323.094 6.09687C323.781 6.09687 324.456 6.175 325.119 6.33125C325.788 6.48125 326.406 6.69687 326.975 6.97812L326.188 8.83437C325.713 8.60937 325.216 8.41562 324.697 8.25312C324.178 8.09062 323.641 8.00937 323.084 8.00937ZM331.4 20H329.188V5.4125H331.4V20ZM343.597 9.62187V20H341.863L341.563 18.6031H341.441C341.222 18.9594 340.944 19.2562 340.606 19.4937C340.269 19.725 339.894 19.8969 339.481 20.0094C339.069 20.1281 338.634 20.1875 338.178 20.1875C337.397 20.1875 336.728 20.0563 336.172 19.7937C335.622 19.525 335.2 19.1125 334.906 18.5562C334.613 18 334.466 17.2812 334.466 16.4V9.62187H336.678V15.9875C336.678 16.7937 336.841 17.3969 337.166 17.7969C337.497 18.1969 338.009 18.3969 338.703 18.3969C339.372 18.3969 339.903 18.2594 340.297 17.9844C340.691 17.7094 340.969 17.3031 341.131 16.7656C341.3 16.2281 341.384 15.5687 341.384 14.7875V9.62187H343.597ZM348.959 5.4125V8.92812C348.959 9.33437 348.947 9.73437 348.922 10.1281C348.903 10.5156 348.884 10.8187 348.866 11.0375H348.959C349.241 10.5875 349.631 10.2094 350.131 9.90312C350.637 9.59062 351.284 9.43437 352.072 9.43437C353.303 9.43437 354.294 9.8875 355.044 10.7937C355.794 11.6937 356.169 13.0281 356.169 14.7969C356.169 15.9719 355.997 16.9594 355.653 17.7594C355.309 18.5594 354.825 19.1656 354.2 19.5781C353.581 19.9844 352.853 20.1875 352.016 20.1875C351.228 20.1875 350.591 20.0438 350.103 19.7562C349.622 19.4625 349.244 19.1219 348.969 18.7344H348.809L348.406 20H346.756V5.4125H348.959ZM351.491 11.225C350.866 11.225 350.369 11.35 350 11.6C349.637 11.85 349.375 12.225 349.212 12.725C349.05 13.2187 348.966 13.8469 348.959 14.6094V14.8062C348.959 15.9625 349.141 16.8469 349.503 17.4594C349.872 18.0719 350.541 18.3781 351.509 18.3781C352.278 18.3781 352.869 18.0687 353.281 17.45C353.694 16.825 353.9 15.9312 353.9 14.7687C353.9 13.5937 353.694 12.7094 353.281 12.1156C352.875 11.5219 352.278 11.225 351.491 11.225ZM365.694 17.0375C365.694 17.7187 365.528 18.2937 365.197 18.7625C364.866 19.2312 364.381 19.5875 363.744 19.8312C363.113 20.0688 362.338 20.1875 361.419 20.1875C360.694 20.1875 360.069 20.1344 359.544 20.0281C359.025 19.9281 358.534 19.7719 358.072 19.5594V17.6562C358.566 17.8875 359.119 18.0875 359.731 18.2562C360.35 18.425 360.934 18.5094 361.484 18.5094C362.209 18.5094 362.731 18.3969 363.05 18.1719C363.369 17.9406 363.528 17.6344 363.528 17.2531C363.528 17.0281 363.463 16.8281 363.331 16.6531C363.206 16.4719 362.969 16.2875 362.619 16.1C362.275 15.9062 361.769 15.675 361.1 15.4062C360.444 15.1437 359.891 14.8812 359.441 14.6187C358.991 14.3562 358.65 14.0406 358.419 13.6719C358.188 13.2969 358.072 12.8187 358.072 12.2375C358.072 11.3187 358.434 10.6219 359.159 10.1469C359.891 9.66562 360.856 9.425 362.056 9.425C362.694 9.425 363.294 9.49062 363.856 9.62187C364.425 9.74687 364.981 9.93125 365.525 10.175L364.831 11.8344C364.363 11.6281 363.891 11.4594 363.416 11.3281C362.947 11.1906 362.469 11.1219 361.981 11.1219C361.413 11.1219 360.978 11.2094 360.678 11.3844C360.384 11.5594 360.238 11.8094 360.238 12.1344C360.238 12.3781 360.309 12.5844 360.453 12.7531C360.597 12.9219 360.844 13.0906 361.194 13.2594C361.55 13.4281 362.044 13.6375 362.675 13.8875C363.294 14.125 363.828 14.375 364.278 14.6375C364.734 14.8937 365.084 15.2094 365.328 15.5844C365.572 15.9594 365.694 16.4437 365.694 17.0375ZM75.7344 33.5031C74.9781 33.5031 74.2969 33.6344 73.6906 33.8969C73.0906 34.1531 72.5781 34.5281 72.1531 35.0219C71.7344 35.5094 71.4125 36.1 71.1875 36.7937C70.9625 37.4875 70.85 38.2687 70.85 39.1375C70.85 40.2875 71.0281 41.2875 71.3844 42.1375C71.7469 42.9812 72.2844 43.6344 72.9969 44.0969C73.7156 44.5594 74.6125 44.7906 75.6875 44.7906C76.3 44.7906 76.875 44.7406 77.4125 44.6406C77.9563 44.5344 78.4844 44.4031 78.9969 44.2469V45.6344C78.4969 45.8219 77.9719 45.9594 77.4219 46.0469C76.8719 46.1406 76.2188 46.1875 75.4625 46.1875C74.0688 46.1875 72.9031 45.9 71.9656 45.325C71.0344 44.7437 70.3344 43.925 69.8656 42.8687C69.4031 41.8125 69.1719 40.5656 69.1719 39.1281C69.1719 38.0906 69.3156 37.1437 69.6031 36.2875C69.8969 35.425 70.3219 34.6812 70.8781 34.0562C71.4406 33.4312 72.1281 32.95 72.9406 32.6125C73.7594 32.2687 74.6969 32.0969 75.7531 32.0969C76.4469 32.0969 77.1156 32.1656 77.7594 32.3031C78.4031 32.4406 78.9844 32.6375 79.5031 32.8937L78.8656 34.2437C78.4281 34.0437 77.9469 33.8719 77.4219 33.7281C76.9031 33.5781 76.3406 33.5031 75.7344 33.5031ZM83.2906 31.4125V35.7719C83.2906 36.0219 83.2844 36.275 83.2719 36.5312C83.2594 36.7812 83.2375 37.0125 83.2063 37.225H83.3094C83.5219 36.8625 83.7906 36.5594 84.1156 36.3156C84.4469 36.0656 84.8219 35.8781 85.2406 35.7531C85.6594 35.6219 86.1031 35.5562 86.5719 35.5562C87.3969 35.5562 88.0844 35.6875 88.6344 35.95C89.1906 36.2125 89.6063 36.6187 89.8813 37.1687C90.1625 37.7187 90.3031 38.4312 90.3031 39.3062V46H88.7656V39.4094C88.7656 38.5531 88.5688 37.9125 88.175 37.4875C87.7875 37.0625 87.1906 36.85 86.3844 36.85C85.6219 36.85 85.0125 36.9969 84.5563 37.2906C84.1063 37.5781 83.7813 38.0031 83.5813 38.5656C83.3875 39.1281 83.2906 39.8156 83.2906 40.6281V46H81.7344V31.4125H83.2906ZM95.0656 35.725V46H93.5094V35.725H95.0656ZM94.3063 31.8812C94.5625 31.8812 94.7813 31.9656 94.9625 32.1344C95.15 32.2969 95.2438 32.5531 95.2438 32.9031C95.2438 33.2469 95.15 33.5031 94.9625 33.6719C94.7813 33.8406 94.5625 33.925 94.3063 33.925C94.0375 33.925 93.8125 33.8406 93.6313 33.6719C93.4563 33.5031 93.3688 33.2469 93.3688 32.9031C93.3688 32.5531 93.4563 32.2969 93.6313 32.1344C93.8125 31.9656 94.0375 31.8812 94.3063 31.8812ZM101.684 44.9125C101.941 44.9125 102.203 44.8906 102.472 44.8469C102.741 44.8031 102.959 44.75 103.128 44.6875V45.8969C102.947 45.9781 102.694 46.0469 102.369 46.1031C102.05 46.1594 101.738 46.1875 101.431 46.1875C100.888 46.1875 100.394 46.0938 99.95 45.9062C99.5063 45.7125 99.15 45.3875 98.8813 44.9312C98.6188 44.475 98.4875 43.8437 98.4875 43.0375V36.9437H97.025V36.1844L98.4969 35.575L99.1156 33.3437H100.053V35.725H103.063V36.9437H100.053V42.9906C100.053 43.6344 100.2 44.1156 100.494 44.4344C100.794 44.7531 101.191 44.9125 101.684 44.9125ZM106.756 31.4125V38.9875C106.756 39.2375 106.747 39.5437 106.728 39.9062C106.709 40.2625 106.694 40.5781 106.681 40.8531H106.747C106.878 40.6906 107.069 40.45 107.319 40.1312C107.575 39.8125 107.791 39.5562 107.966 39.3625L111.378 35.725H113.206L109.072 40.1125L113.506 46H111.631L108.003 41.1344L106.756 42.2781V46H105.209V31.4125H106.756ZM119.141 35.5562C120.366 35.5562 121.275 35.8312 121.869 36.3812C122.463 36.9312 122.759 37.8094 122.759 39.0156V46H121.625L121.325 44.4812H121.25C120.963 44.8562 120.663 45.1719 120.35 45.4281C120.038 45.6781 119.675 45.8687 119.263 46C118.856 46.125 118.356 46.1875 117.763 46.1875C117.138 46.1875 116.581 46.0781 116.094 45.8594C115.613 45.6406 115.231 45.3094 114.95 44.8656C114.675 44.4219 114.538 43.8594 114.538 43.1781C114.538 42.1531 114.944 41.3656 115.756 40.8156C116.569 40.2656 117.806 39.9656 119.469 39.9156L121.241 39.8406V39.2125C121.241 38.325 121.05 37.7031 120.669 37.3469C120.288 36.9906 119.75 36.8125 119.056 36.8125C118.519 36.8125 118.006 36.8906 117.519 37.0469C117.031 37.2031 116.569 37.3875 116.131 37.6L115.653 36.4187C116.116 36.1812 116.647 35.9781 117.247 35.8094C117.847 35.6406 118.478 35.5562 119.141 35.5562ZM121.222 40.9375L119.656 41.0031C118.375 41.0531 117.472 41.2625 116.947 41.6312C116.422 42 116.159 42.5219 116.159 43.1969C116.159 43.7844 116.338 44.2187 116.694 44.5C117.05 44.7812 117.522 44.9219 118.109 44.9219C119.022 44.9219 119.769 44.6687 120.35 44.1625C120.931 43.6562 121.222 42.8969 121.222 41.8844V40.9375ZM130.634 35.5375C130.841 35.5375 131.056 35.55 131.281 35.575C131.506 35.5937 131.706 35.6219 131.881 35.6594L131.684 37.1031C131.516 37.0594 131.328 37.025 131.122 37C130.916 36.975 130.722 36.9625 130.541 36.9625C130.128 36.9625 129.738 37.0469 129.369 37.2156C129.006 37.3781 128.688 37.6156 128.413 37.9281C128.138 38.2344 127.922 38.6062 127.766 39.0437C127.609 39.475 127.531 39.9562 127.531 40.4875V46H125.966V35.725H127.259L127.428 37.6187H127.494C127.706 37.2375 127.963 36.8906 128.263 36.5781C128.563 36.2594 128.909 36.0062 129.303 35.8187C129.703 35.6312 130.147 35.5375 130.634 35.5375ZM137.666 35.5562C138.891 35.5562 139.8 35.8312 140.394 36.3812C140.988 36.9312 141.284 37.8094 141.284 39.0156V46H140.15L139.85 44.4812H139.775C139.488 44.8562 139.188 45.1719 138.875 45.4281C138.563 45.6781 138.2 45.8687 137.788 46C137.381 46.125 136.881 46.1875 136.288 46.1875C135.663 46.1875 135.106 46.0781 134.619 45.8594C134.138 45.6406 133.756 45.3094 133.475 44.8656C133.2 44.4219 133.063 43.8594 133.063 43.1781C133.063 42.1531 133.469 41.3656 134.281 40.8156C135.094 40.2656 136.331 39.9656 137.994 39.9156L139.766 39.8406V39.2125C139.766 38.325 139.575 37.7031 139.194 37.3469C138.813 36.9906 138.275 36.8125 137.581 36.8125C137.044 36.8125 136.531 36.8906 136.044 37.0469C135.556 37.2031 135.094 37.3875 134.656 37.6L134.178 36.4187C134.641 36.1812 135.172 35.9781 135.772 35.8094C136.372 35.6406 137.003 35.5562 137.666 35.5562ZM139.747 40.9375L138.181 41.0031C136.9 41.0531 135.997 41.2625 135.472 41.6312C134.947 42 134.684 42.5219 134.684 43.1969C134.684 43.7844 134.863 44.2187 135.219 44.5C135.575 44.7812 136.047 44.9219 136.634 44.9219C137.547 44.9219 138.294 44.6687 138.875 44.1625C139.456 43.6562 139.747 42.8969 139.747 41.8844V40.9375ZM160.081 32.2937V41.1625C160.081 42.1312 159.884 42.9937 159.491 43.75C159.103 44.5062 158.516 45.1031 157.728 45.5406C156.941 45.9719 155.953 46.1875 154.766 46.1875C153.072 46.1875 151.781 45.7281 150.894 44.8094C150.013 43.8906 149.572 42.6625 149.572 41.125V32.2937H151.175V41.1719C151.175 42.3344 151.481 43.2312 152.094 43.8625C152.713 44.4937 153.634 44.8094 154.859 44.8094C155.697 44.8094 156.381 44.6594 156.913 44.3594C157.45 44.0531 157.847 43.6281 158.103 43.0844C158.366 42.5344 158.497 41.9 158.497 41.1812V32.2937H160.081ZM168.35 35.5375C169.569 35.5375 170.491 35.8375 171.116 36.4375C171.741 37.0312 172.053 37.9875 172.053 39.3062V46H170.516V39.4094C170.516 38.5531 170.319 37.9125 169.925 37.4875C169.538 37.0625 168.941 36.85 168.134 36.85C166.997 36.85 166.197 37.1719 165.734 37.8156C165.272 38.4594 165.041 39.3937 165.041 40.6187V46H163.484V35.725H164.741L164.975 37.2062H165.059C165.278 36.8437 165.556 36.5406 165.894 36.2969C166.231 36.0469 166.609 35.8594 167.028 35.7344C167.447 35.6031 167.888 35.5375 168.35 35.5375ZM176.816 35.725V46H175.259V35.725H176.816ZM176.056 31.8812C176.313 31.8812 176.531 31.9656 176.713 32.1344C176.9 32.2969 176.994 32.5531 176.994 32.9031C176.994 33.2469 176.9 33.5031 176.713 33.6719C176.531 33.8406 176.313 33.925 176.056 33.925C175.788 33.925 175.563 33.8406 175.381 33.6719C175.206 33.5031 175.119 33.2469 175.119 32.9031C175.119 32.5531 175.206 32.2969 175.381 32.1344C175.563 31.9656 175.788 31.8812 176.056 31.8812ZM182.375 46L178.475 35.725H180.144L182.403 41.9406C182.559 42.3656 182.719 42.8344 182.881 43.3469C183.044 43.8594 183.156 44.2719 183.219 44.5844H183.284C183.359 44.2719 183.484 43.8594 183.659 43.3469C183.834 42.8281 183.994 42.3594 184.138 41.9406L186.397 35.725H188.066L184.156 46H182.375ZM193.672 35.5375C194.547 35.5375 195.297 35.7312 195.922 36.1187C196.547 36.5062 197.025 37.05 197.356 37.75C197.688 38.4437 197.853 39.2562 197.853 40.1875V41.1531H190.756C190.775 42.3594 191.075 43.2781 191.656 43.9094C192.238 44.5406 193.056 44.8562 194.113 44.8562C194.763 44.8562 195.338 44.7969 195.838 44.6781C196.338 44.5594 196.856 44.3844 197.394 44.1531V45.5219C196.875 45.7531 196.359 45.9219 195.847 46.0281C195.341 46.1344 194.741 46.1875 194.047 46.1875C193.059 46.1875 192.197 45.9875 191.459 45.5875C190.728 45.1812 190.159 44.5875 189.753 43.8062C189.347 43.025 189.144 42.0687 189.144 40.9375C189.144 39.8312 189.328 38.875 189.697 38.0687C190.072 37.2562 190.597 36.6312 191.272 36.1937C191.953 35.7562 192.753 35.5375 193.672 35.5375ZM193.653 36.8125C192.822 36.8125 192.159 37.0844 191.666 37.6281C191.172 38.1719 190.878 38.9312 190.784 39.9062H196.222C196.216 39.2937 196.119 38.7562 195.931 38.2937C195.75 37.825 195.472 37.4625 195.097 37.2062C194.722 36.9437 194.241 36.8125 193.653 36.8125ZM205.166 35.5375C205.372 35.5375 205.588 35.55 205.813 35.575C206.038 35.5937 206.238 35.6219 206.413 35.6594L206.216 37.1031C206.047 37.0594 205.859 37.025 205.653 37C205.447 36.975 205.253 36.9625 205.072 36.9625C204.659 36.9625 204.269 37.0469 203.9 37.2156C203.538 37.3781 203.219 37.6156 202.944 37.9281C202.669 38.2344 202.453 38.6062 202.297 39.0437C202.141 39.475 202.063 39.9562 202.063 40.4875V46H200.497V35.725H201.791L201.959 37.6187H202.025C202.238 37.2375 202.494 36.8906 202.794 36.5781C203.094 36.2594 203.441 36.0062 203.834 35.8187C204.234 35.6312 204.678 35.5375 205.166 35.5375ZM215 43.1875C215 43.8437 214.834 44.3969 214.503 44.8469C214.178 45.2906 213.709 45.625 213.097 45.85C212.491 46.075 211.766 46.1875 210.922 46.1875C210.203 46.1875 209.581 46.1313 209.056 46.0188C208.531 45.9062 208.072 45.7469 207.678 45.5406V44.1062C208.097 44.3125 208.597 44.5 209.178 44.6687C209.759 44.8375 210.353 44.9219 210.959 44.9219C211.847 44.9219 212.491 44.7781 212.891 44.4906C213.291 44.2031 213.491 43.8125 213.491 43.3187C213.491 43.0375 213.409 42.7906 213.247 42.5781C213.091 42.3594 212.825 42.15 212.45 41.95C212.075 41.7437 211.556 41.5187 210.894 41.275C210.238 41.025 209.669 40.7781 209.188 40.5344C208.713 40.2844 208.344 39.9812 208.081 39.625C207.825 39.2687 207.697 38.8062 207.697 38.2375C207.697 37.3687 208.047 36.7031 208.747 36.2406C209.453 35.7719 210.378 35.5375 211.522 35.5375C212.141 35.5375 212.719 35.6 213.256 35.725C213.8 35.8437 214.306 36.0062 214.775 36.2125L214.25 37.4594C213.825 37.2781 213.372 37.125 212.891 37C212.409 36.875 211.919 36.8125 211.419 36.8125C210.7 36.8125 210.147 36.9312 209.759 37.1687C209.378 37.4062 209.188 37.7312 209.188 38.1437C209.188 38.4625 209.275 38.725 209.45 38.9312C209.631 39.1375 209.919 39.3312 210.313 39.5125C210.706 39.6937 211.225 39.9062 211.869 40.15C212.513 40.3875 213.069 40.6344 213.538 40.8906C214.006 41.1406 214.366 41.4469 214.616 41.8094C214.872 42.1656 215 42.625 215 43.1875ZM219.059 35.725V46H217.503V35.725H219.059ZM218.3 31.8812C218.556 31.8812 218.775 31.9656 218.956 32.1344C219.144 32.2969 219.238 32.5531 219.238 32.9031C219.238 33.2469 219.144 33.5031 218.956 33.6719C218.775 33.8406 218.556 33.925 218.3 33.925C218.031 33.925 217.806 33.8406 217.625 33.6719C217.45 33.5031 217.363 33.2469 217.363 32.9031C217.363 32.5531 217.45 32.2969 217.625 32.1344C217.806 31.9656 218.031 31.8812 218.3 31.8812ZM225.678 44.9125C225.934 44.9125 226.197 44.8906 226.466 44.8469C226.734 44.8031 226.953 44.75 227.122 44.6875V45.8969C226.941 45.9781 226.688 46.0469 226.363 46.1031C226.044 46.1594 225.731 46.1875 225.425 46.1875C224.881 46.1875 224.388 46.0938 223.944 45.9062C223.5 45.7125 223.144 45.3875 222.875 44.9312C222.613 44.475 222.481 43.8437 222.481 43.0375V36.9437H221.019V36.1844L222.491 35.575L223.109 33.3437H224.047V35.725H227.056V36.9437H224.047V42.9906C224.047 43.6344 224.194 44.1156 224.488 44.4344C224.788 44.7531 225.184 44.9125 225.678 44.9125ZM227.581 35.725H229.25L231.519 41.6875C231.65 42.0375 231.772 42.375 231.884 42.7C231.997 43.0187 232.097 43.325 232.184 43.6187C232.272 43.9125 232.341 44.1969 232.391 44.4719H232.456C232.544 44.1594 232.669 43.75 232.831 43.2437C232.994 42.7312 233.169 42.2094 233.356 41.6781L235.503 35.725H237.181L232.709 47.5094C232.472 48.1406 232.194 48.6906 231.875 49.1594C231.563 49.6281 231.181 49.9875 230.731 50.2375C230.281 50.4938 229.738 50.6219 229.1 50.6219C228.806 50.6219 228.547 50.6031 228.322 50.5656C228.097 50.5344 227.903 50.4969 227.741 50.4531V49.2063C227.878 49.2375 228.044 49.2656 228.238 49.2906C228.438 49.3156 228.644 49.3281 228.856 49.3281C229.244 49.3281 229.578 49.2531 229.859 49.1031C230.147 48.9594 230.394 48.7469 230.6 48.4656C230.806 48.1844 230.984 47.85 231.134 47.4625L231.697 46.0188L227.581 35.725Z" fill="white"/>
</svg>
